<?xml version="1.0" encoding="utf-8"?>
<!-- Generator: Adobe Illustrator 15.0.2, SVG Export Plug-In  -->
<!DOCTYPE svg PUBLIC "-//W3C//DTD SVG 1.1//EN" "http://www.w3.org/Graphics/SVG/1.1/DTD/svg11.dtd" [
	<!ENTITY ns_flows "http://ns.adobe.com/Flows/1.0/">
]>
<svg version="1.1"
	 xmlns="http://www.w3.org/2000/svg" xmlns:xlink="http://www.w3.org/1999/xlink" xmlns:a="http://ns.adobe.com/AdobeSVGViewerExtensions/3.0/"
	 x="0px" y="0px" width="50px" height="80px" viewBox="21.192 6.935 50 80"
	 overflow="visible" enable-background="new 21.192 6.935 50 80" xml:space="preserve">
<defs>
</defs>
<g>
	<defs>
		<rect id="SVGID_1_" width="92.489" height="92.49"/>
	</defs>
	<clipPath id="SVGID_2_">
		<use xlink:href="#SVGID_1_"  overflow="visible"/>
	</clipPath>
	<path clip-path="url(#SVGID_2_)" fill="#383233" d="M43.61,46.878c0,0.484,0.395,0.878,0.878,0.878h3.515
		c0.481,0,0.877-0.395,0.877-0.878v-33.66c0-0.483,0.396-0.878,0.878-0.878h14.156c0.483,0,0.878-0.395,0.878-0.879V7.948
		c0-0.482-0.395-0.878-0.878-0.878H28.577c-0.485,0-0.879,0.396-0.879,0.878v3.513c0,0.484,0.394,0.879,0.879,0.879h14.155
		c0.483,0,0.878,0.395,0.878,0.878V46.878z"/>
	<path clip-path="url(#SVGID_2_)" fill="#383233" d="M46.798,66.134c-0.25,0.412-0.66,0.412-0.913,0.002L22.15,27.363
		c-0.252-0.412-0.458-0.354-0.458,0.13V68.9c0,0.481,0.395,0.878,0.878,0.878h3.514c0.484,0,0.879-0.396,0.879-0.878V46.199
		c0-0.481,0.206-0.54,0.459-0.128L42.81,71.21c0.253,0.413,0.255,1.087,0.004,1.499l-5.792,9.558
		c-0.251,0.412-0.117,0.955,0.295,1.206l3.007,1.821c0.414,0.25,0.955,0.116,1.206-0.298l4.38-7.226
		c0.25-0.414,0.66-0.414,0.913-0.002l4.417,7.217c0.254,0.412,0.798,0.542,1.208,0.288l2.995-1.834
		c0.413-0.253,0.545-0.796,0.292-1.207l-5.836-9.536c-0.254-0.412-0.256-1.086-0.007-1.503l15.181-25.041
		c0.251-0.413,0.454-0.355,0.454,0.127V68.9c0,0.481,0.393,0.878,0.876,0.878h3.516c0.481,0,0.878-0.396,0.878-0.878V27.414
		c0-0.482-0.205-0.542-0.454-0.126L46.798,66.134z"/>
</g>
</svg>
